<?xml version="1.0" encoding="UTF-8" standalone="no"?>
<svg xmlns="http://www.w3.org/2000/svg" viewBox="0 0 512 512" width="512" height="512">
  <!-- Icon Pack for QGroundControl Modern UI -->
  
  <!-- PLAN Icon -->
  <g id="icon-plan">
    <rect x="64" y="64" width="384" height="384" fill="none" stroke="#00BCD4" stroke-width="16" rx="16"/>
    <line x1="128" y1="128" x2="384" y2="128" stroke="#00BCD4" stroke-width="16"/>
    <line x1="64" y1="192" x2="448" y2="192" stroke="#00BCD4" stroke-width="16"/>
    <circle cx="96" cy="160" r="8" fill="#00BCD4"/>
    <circle cx="96" cy="224" r="8" fill="#00BCD4"/>
    <circle cx="96" cy="288" r="8" fill="#00BCD4"/>
  </g>
  
  <!-- FLY Icon -->
  <g id="icon-fly">
    <path d="M256 64 L448 256 L256 448 L64 256 Z" fill="none" stroke="#00BCD4" stroke-width="16"/>
    <circle cx="256" cy="256" r="32" fill="#00BCD4"/>
    <path d="M256 64 L256 128" stroke="#00BCD4" stroke-width="16" stroke-linecap="round"/>
  </g>
  
  <!-- VEHICLES Icon -->
  <g id="icon-vehicles">
    <rect x="32" y="80" width="160" height="240" fill="none" stroke="#10B981" stroke-width="16" rx="8"/>
    <rect x="232" y="80" width="160" height="240" fill="none" stroke="#10B981" stroke-width="16" rx="8"/>
    <rect x="432" y="80" width="48" height="80" fill="none" stroke="#10B981" stroke-width="16" rx="4"/>
    <path d="M112 320 L352 320 L352 400 Q352 448 304 448 L160 448 Q112 448 112 400 Z" 
          fill="none" stroke="#10B981" stroke-width="16"/>
  </g>
  
  <!-- LIBRARY Icon -->
  <g id="icon-library">
    <rect x="64" y="64" width="128" height="384" fill="none" stroke="#F59E0B" stroke-width="16" rx="8"/>
    <line x1="96" y1="96" x2="160" y2="96" stroke="#F59E0B" stroke-width="8"/>
    <line x1="96" y1="144" x2="160" y2="144" stroke="#F59E0B" stroke-width="8"/>
    <line x1="96" y1="192" x2="160" y2="192" stroke="#F59E0B" stroke-width="8"/>
    <line x1="96" y1="240" x2="160" y2="240" stroke="#F59E0B" stroke-width="8"/>
    <line x1="96" y1="288" x2="160" y2="288" stroke="#F59E0B" stroke-width="8"/>
    <rect x="224" y="64" width="224" height="384" fill="none" stroke="#F59E0B" stroke-width="16" rx="8"/>
    <circle cx="336" cy="192" r="64" fill="#F59E0B" opacity="0.2"/>
  </g>
  
  <!-- ANALYZE Icon -->
  <g id="icon-analyze">
    <path d="M64 400 L128 240 L192 320 L256 160 L320 280 L384 120 L448 200" 
          fill="none" stroke="#3B82F6" stroke-width="16" stroke-linecap="round" stroke-linejoin="round"/>
    <circle cx="64" cy="400" r="8" fill="#3B82F6"/>
    <circle cx="128" cy="240" r="8" fill="#3B82F6"/>
    <circle cx="192" cy="320" r="8" fill="#3B82F6"/>
    <circle cx="256" cy="160" r="8" fill="#3B82F6"/>
    <circle cx="320" cy="280" r="8" fill="#3B82F6"/>
    <circle cx="384" cy="120" r="8" fill="#3B82F6"/>
    <circle cx="448" cy="200" r="8" fill="#3B82F6"/>
    <line x1="64" y1="448" x2="448" y2="448" stroke="#3B82F6" stroke-width="16"/>
  </g>
  
  <!-- SETTINGS Icon -->
  <g id="icon-settings">
    <circle cx="256" cy="256" r="48" fill="none" stroke="#4B5563" stroke-width="16"/>
    <circle cx="256" cy="96" r="24" fill="none" stroke="#4B5563" stroke-width="16"/>
    <circle cx="256" cy="416" r="24" fill="none" stroke="#4B5563" stroke-width="16"/>
    <circle cx="96" cy="256" r="24" fill="none" stroke="#4B5563" stroke-width="16"/>
    <circle cx="416" cy="256" r="24" fill="none" stroke="#4B5563" stroke-width="16"/>
    <line x1="256" y1="120" x2="256" y2="208" stroke="#4B5563" stroke-width="16"/>
    <line x1="256" y1="304" x2="256" y2="392" stroke="#4B5563" stroke-width="16"/>
    <line x1="120" y1="256" x2="208" y2="256" stroke="#4B5563" stroke-width="16"/>
    <line x1="304" y1="256" x2="392" y2="256" stroke="#4B5563" stroke-width="16"/>
  </g>
  
  <!-- ADD Waypoint Icon -->
  <g id="icon-add-waypoint">
    <circle cx="256" cy="256" r="128" fill="none" stroke="#00BCD4" stroke-width="16"/>
    <line x1="256" y1="160" x2="256" y2="352" stroke="#00BCD4" stroke-width="16" stroke-linecap="round"/>
    <line x1="160" y1="256" x2="352" y2="256" stroke="#00BCD4" stroke-width="16" stroke-linecap="round"/>
    <circle cx="256" cy="256" r="16" fill="#00BCD4"/>
  </g>
  
  <!-- ARM Icon -->
  <g id="icon-arm">
    <path d="M 256 100 L 356 180 L 420 280 Q 420 360 340 400 Q 256 440 172 400 Q 92 360 92 280 L 156 180 Z" 
          fill="none" stroke="#10B981" stroke-width="16"/>
    <path d="M 256 200 L 320 260 L 300 340 Q 256 380 212 340 L 192 260 Z" 
          fill="#10B981" opacity="0.3"/>
    <circle cx="256" cy="280" r="32" fill="none" stroke="#10B981" stroke-width="12"/>
  </g>
  
  <!-- START Mission Icon -->
  <g id="icon-start">
    <path d="M 112 96 L 400 256 L 112 416 Z" fill="none" stroke="#F59E0B" stroke-width="16" stroke-linejoin="round"/>
    <circle cx="256" cy="256" r="24" fill="#F59E0B"/>
  </g>
  
  <!-- DELETE Icon -->
  <g id="icon-delete">
    <rect x="80" y="96" width="352" height="32" fill="none" stroke="#EF4444" stroke-width="16" rx="8"/>
    <line x1="128" y1="64" x2="128" y2="96" stroke="#EF4444" stroke-width="16" stroke-linecap="round"/>
    <line x1="384" y1="64" x2="384" y2="96" stroke="#EF4444" stroke-width="16" stroke-linecap="round"/>
    <rect x="96" y="128" width="320" height="320" fill="none" stroke="#EF4444" stroke-width="16" rx="8"/>
    <line x1="160" y1="160" x2="160" y2="400" stroke="#EF4444" stroke-width="12"/>
    <line x1="256" y1="160" x2="256" y2="400" stroke="#EF4444" stroke-width="12"/>
    <line x1="352" y1="160" x2="352" y2="400" stroke="#EF4444" stroke-width="12"/>
  </g>
  
  <!-- LAYER Icon -->
  <g id="icon-layer">
    <rect x="64" y="96" width="384" height="96" fill="none" stroke="#00BCD4" stroke-width="16" rx="8"/>
    <rect x="64" y="208" width="384" height="96" fill="none" stroke="#00BCD4" stroke-width="16" rx="8"/>
    <rect x="64" y="320" width="384" height="96" fill="none" stroke="#00BCD4" stroke-width="16" rx="8"/>
    <line x1="80" y1="144" x2="432" y2="144" stroke="#00BCD4" stroke-width="8" opacity="0.5"/>
    <line x1="80" y1="256" x2="432" y2="256" stroke="#00BCD4" stroke-width="8" opacity="0.5"/>
  </g>
  
  <!-- VALIDATION Icon -->
  <g id="icon-validation">
    <circle cx="256" cy="256" r="160" fill="none" stroke="#F59E0B" stroke-width="16"/>
    <text x="256" y="280" font-size="96" text-anchor="middle" fill="#F59E0B" font-weight="bold">!</text>
    <circle cx="256" cy="400" r="20" fill="#F59E0B"/>
  </g>
  
  <!-- CHECK Icon -->
  <g id="icon-check">
    <path d="M 96 256 L 192 352 L 416 128" 
          fill="none" stroke="#10B981" stroke-width="32" stroke-linecap="round" stroke-linejoin="round"/>
  </g>
  
  <!-- CLOSE Icon -->
  <g id="icon-close">
    <line x1="96" y1="96" x2="416" y2="416" stroke="#EF4444" stroke-width="32" stroke-linecap="round"/>
    <line x1="416" y1="96" x2="96" y2="416" stroke="#EF4444" stroke-width="32" stroke-linecap="round"/>
  </g>
  
  <!-- MENU Icon -->
  <g id="icon-menu">
    <line x1="80" y1="128" x2="432" y2="128" stroke="#111827" stroke-width="32" stroke-linecap="round"/>
    <line x1="80" y1="256" x2="432" y2="256" stroke="#111827" stroke-width="32" stroke-linecap="round"/>
    <line x1="80" y1="384" x2="432" y2="384" stroke="#111827" stroke-width="32" stroke-linecap="round"/>
  </g>
  
</svg>
